<?xml version="1.0" standalone="no"?>
<!DOCTYPE svg PUBLIC "-//W3C//DTD SVG 20010904//EN"
 "http://www.w3.org/TR/2001/REC-SVG-20010904/DTD/svg10.dtd">
<svg version="1.0" xmlns="http://www.w3.org/2000/svg"
 width="468.000000pt" height="534.000000pt" viewBox="0 0 468.000000 534.000000"
 preserveAspectRatio="xMidYMid meet">

<g transform="translate(0.000000,534.000000) scale(0.100000,-0.100000)"
fill="#2196f3" stroke="none">
<path d="M2235 5334 c-11 -2 -45 -9 -75 -15 -78 -16 -163 -54 -256 -116 -231
-151 -367 -425 -351 -708 8 -132 26 -199 87 -320 99 -194 253 -327 465 -400
139 -48 363 -47 510 3 152 51 314 175 397 303 65 101 80 129 74 145 -3 8 -2
13 3 10 12 -8 47 111 62 212 10 65 10 102 0 175 -14 105 -49 230 -62 221 -5
-3 -6 2 -3 10 10 26 -89 179 -163 252 -99 96 -232 175 -355 210 -51 14 -293
28 -333 18z"/>
<path d="M1680 1793 l0 -1796 108 6 c261 15 498 106 726 279 66 50 214 207
271 288 111 158 190 350 224 550 17 97 19 190 20 1277 1 644 -3 1174 -7 1177
-5 3 -18 -3 -28 -13 -61 -57 -215 -142 -314 -174 -108 -36 -197 -49 -325 -49
-156 0 -264 23 -402 84 -84 36 -243 137 -251 159 -2 5 -8 9 -13 9 -5 0 -9
-714 -9 -1797z"/>
<path d="M1030 3573 c-194 -16 -399 -94 -565 -213 -289 -208 -476 -568 -463
-890 l3 -75 685 0 685 0 0 590 0 590 -150 1 c-82 1 -170 -1 -195 -3z"/>
<path d="M3307 3574 c-4 -4 -7 -269 -7 -590 0 -527 2 -582 16 -588 21 -8 1328
-7 1349 0 11 5 15 22 15 68 0 435 -279 846 -693 1022 -159 67 -258 86 -482 91
-105 2 -194 1 -198 -3z"/>
</g>
</svg>
